<svg id="SvgjsSvg1001" width="288" height="288" xmlns="http://www.w3.org/2000/svg" version="1.1" xmlns:xlink="http://www.w3.org/1999/xlink" xmlns:svgjs="http://svgjs.com/svgjs"><defs id="SvgjsDefs1002"></defs><g id="SvgjsG1008" transform="matrix(0.9167,0,0,0.9167,11.924063063430793,12.179097180938726)"><svg xmlns="http://www.w3.org/2000/svg" width="288" height="288" viewBox="0 0 639.769 530.649"><defs><filter id="a" width="639.769" height="530.649" x="0" y="0" filterUnits="userSpaceOnUse"><feOffset dx="-5" dy="3"></feOffset><feGaussianBlur result="blur" stdDeviation="25"></feGaussianBlur><feFlood flood-color="#002731" flood-opacity=".251"></feFlood><feComposite in2="blur" operator="in"></feComposite><feComposite in="SourceGraphic"></feComposite></filter><filter id="c" width="243.073" height="257.366" x="256.086" y="269.235" filterUnits="userSpaceOnUse"><feOffset dy="3"></feOffset><feGaussianBlur result="blur-2" stdDeviation="10"></feGaussianBlur><feFlood flood-opacity=".102"></feFlood><feComposite in2="blur-2" operator="in"></feComposite><feComposite in="SourceGraphic"></feComposite></filter><filter id="d" width="218.022" height="160.87" x="89.751" y="20.169" filterUnits="userSpaceOnUse"><feOffset dy="3"></feOffset><feGaussianBlur result="blur-3" stdDeviation="10"></feGaussianBlur><feFlood flood-opacity=".102"></feFlood><feComposite in2="blur-3" operator="in"></feComposite><feComposite in="SourceGraphic"></feComposite></filter><filter id="e" width="133.592" height="132.746" x="489.602" y="269.16" filterUnits="userSpaceOnUse"><feOffset dy="3"></feOffset><feGaussianBlur result="blur-4" stdDeviation="10"></feGaussianBlur><feFlood flood-opacity=".102"></feFlood><feComposite in2="blur-4" operator="in"></feComposite><feComposite in="SourceGraphic"></feComposite></filter><filter id="f" width="133.592" height="132.746" x="12.781" y="151.582" filterUnits="userSpaceOnUse"><feOffset dy="3"></feOffset><feGaussianBlur result="blur-5" stdDeviation="10"></feGaussianBlur><feFlood flood-opacity=".102"></feFlood><feComposite in2="blur-5" operator="in"></feComposite><feComposite in="SourceGraphic"></feComposite></filter><linearGradient id="b" x1=".5" x2=".5" y2="1" gradientUnits="objectBoundingBox"><stop offset="0" stop-color="#a7d5ec" class="stopColora7d5ec svgShape"></stop><stop offset="1" stop-color="#ffffff" stop-opacity="0" class="stopColorfff svgShape"></stop></linearGradient></defs><g data-name="Group 34" transform="translate(-3043.787 -860.607)" fill="#000000" class="color000 svgShape"><g data-name="Group 20" transform="translate(3123.787 932.607)" fill="#000000" class="color000 svgShape"><g filter="url(#a)" transform="translate(-80 -72)" fill="#000000" class="color000 svgShape"><rect width="489.769" height="380.649" fill="#fee5f8" data-name="Rectangle 25" rx="20" transform="translate(80 72)" class="colorfff svgShape"></rect></g><rect width="464.392" height="330.742" fill="#d8c8ec" data-name="Rectangle 26" rx="18" transform="translate(12.688 37.219)" class="colorf5f6fa svgShape"></rect></g><g data-name="Group 22" transform="translate(3379.245 983.36)" fill="#000000" class="color000 svgShape"><rect width="208.934" height="155.643" fill="#fee5f8" data-name="Rectangle 28" rx="20" class="colorfff svgShape"></rect><rect width="49.907" height="10.997" fill="#e4f1f9" data-name="Rectangle 41" rx="5.498" transform="translate(11.842 13.534)" class="colore4f1f9 svgShape"></rect><g data-name="Group 23" transform="translate(11.842 43.14)" fill="#000000" class="color000 svgShape"><rect width="14.38" height="3.384" fill="#d3daf6" data-name="Rectangle 42" rx="1.692" class="colord3daf6 svgShape"></rect><rect width="14.38" height="3.384" fill="#d3daf6" data-name="Rectangle 42" rx="1.692" transform="translate(0 19.455)" class="colord3daf6 svgShape"></rect><rect width="14.38" height="2.538" fill="#d3daf6" data-name="Rectangle 42" rx="1.269" transform="translate(0 38.911)" class="colord3daf6 svgShape"></rect><rect width="14.38" height="3.384" fill="#d3daf6" data-name="Rectangle 42" rx="1.692" transform="translate(0 57.52)" class="colord3daf6 svgShape"></rect><rect width="14.38" height="3.384" fill="#d3daf6" data-name="Rectangle 42" rx="1.692" transform="translate(0 76.976)" class="colord3daf6 svgShape"></rect><rect width="14.38" height="2.538" fill="#d3daf6" data-name="Rectangle 42" rx="1.269" transform="translate(0 96.431)" class="colord3daf6 svgShape"></rect></g><path fill="none" stroke="#e4f1f9" stroke-linecap="round" d="M2657.788,1061h161.749" data-name="Path 228" transform="translate(-2625.598 -1015.551)" class="colorStrokee4f1f9 svgStroke"></path><path fill="none" stroke="#e4f1f9" stroke-linecap="round" d="M2657.788,1061h136.193" data-name="Path 229" transform="translate(-2625.598 -996.406)" class="colorStrokee4f1f9 svgStroke"></path><path fill="none" stroke="#e4f1f9" stroke-linecap="round" d="M2657.788,1061h97.324" data-name="Path 230" transform="translate(-2625.598 -977.261)" class="colorStrokee4f1f9 svgStroke"></path><g data-name="Group 21" transform="translate(38.579 57.51)" fill="#000000" class="color000 svgShape"><path fill="url(#b)" d="M2821.524,1074.62h-17.486l-24.364,22.36-18.059-1.162-19.491,23.812-22.645-1.162-10.606,10.454-24.938-19.456-17.772,27.678v27.015h155.361Z" data-name="Path 232" transform="translate(-2666.163 -1074.62)"></path><path fill="none" stroke="#f26180" stroke-width="2.5" d="M2666.163,1137.145l17.705-27.678,24.844,19.456,10.566-10.454,22.56,1.162,19.419-23.812,17.991,1.162,24.273-22.36h17.42" data-name="Path 231" transform="translate(-2665.58 -1074.62)" class="colorStroke32a3db svgStroke"></path></g></g><g data-name="Group 26" transform="translate(3149.164 983.36)" fill="#000000" class="color000 svgShape"><rect width="208.934" height="155.643" fill="#767fad" data-name="Rectangle 27" rx="20" class="color00478e svgShape"></rect><g data-name="Group 24" transform="translate(11.842 43.14)" fill="#000000" class="color000 svgShape"><rect width="14.38" height="3.384" fill="#d3daf6" data-name="Rectangle 42" rx="1.692" class="colord3daf6 svgShape"></rect><rect width="14.38" height="3.384" fill="#d3daf6" data-name="Rectangle 42" rx="1.692" transform="translate(0 19.455)" class="colord3daf6 svgShape"></rect><rect width="14.38" height="2.538" fill="#d3daf6" data-name="Rectangle 42" rx="1.269" transform="translate(0 38.911)" class="colord3daf6 svgShape"></rect><rect width="14.38" height="3.384" fill="#d3daf6" data-name="Rectangle 42" rx="1.692" transform="translate(0 57.52)" class="colord3daf6 svgShape"></rect><rect width="14.38" height="3.384" fill="#d3daf6" data-name="Rectangle 42" rx="1.692" transform="translate(0 76.976)" class="colord3daf6 svgShape"></rect><rect width="14.38" height="2.538" fill="#d3daf6" data-name="Rectangle 42" rx="1.269" transform="translate(0 96.431)" class="colord3daf6 svgShape"></rect></g><g data-name="Group 25" opacity=".2" transform="translate(33.683 45.449)" fill="#000000" class="color000 svgShape"><path fill="none" stroke="#e4f1f9" stroke-linecap="round" d="M2657.788,1061h161.749" data-name="Path 233" transform="translate(-2657.788 -1061)" class="colorStrokee4f1f9 svgStroke"></path><path fill="none" stroke="#e4f1f9" stroke-linecap="round" d="M2657.788,1061h161.749" data-name="Path 233" transform="translate(-2657.788 -1041.855)" class="colorStrokee4f1f9 svgStroke"></path><path fill="none" stroke="#e4f1f9" stroke-linecap="round" d="M2657.788,1061h161.749" data-name="Path 233" transform="translate(-2657.788 -1022.71)" class="colorStrokee4f1f9 svgStroke"></path><path fill="none" stroke="#e4f1f9" stroke-linecap="round" d="M2657.788,1061h161.749" data-name="Path 233" transform="translate(-2657.788 -1003.564)" class="colorStrokee4f1f9 svgStroke"></path><path fill="none" stroke="#e4f1f9" stroke-linecap="round" d="M2657.788,1061h161.749" data-name="Path 233" transform="translate(-2657.788 -984.419)" class="colorStrokee4f1f9 svgStroke"></path><path fill="none" stroke="#e4f1f9" stroke-linecap="round" d="M2657.788,1061h161.749" data-name="Path 233" transform="translate(-2657.788 -965.274)" class="colorStrokee4f1f9 svgStroke"></path></g><rect width="16.072" height="29.606" fill="#0ba2e7" data-name="Rectangle 43" rx="8.036" transform="translate(35.527 110.811)" class="color0ba2e7 svgShape"></rect><rect width="16.072" height="55.829" fill="#ff8066" data-name="Rectangle 43" rx="8.036" transform="translate(60.058 84.589)" class="colorfcbdac svgShape"></rect><rect width="16.072" height="76.976" fill="#0ba2e7" data-name="Rectangle 43" rx="8.036" transform="translate(83.743 63.442)" class="color0ba2e7 svgShape"></rect><rect width="16.072" height="29.606" fill="#ff8066" data-name="Rectangle 43" rx="8.036" transform="translate(107.428 110.811)" class="colorfcbdac svgShape"></rect><rect width="15.226" height="23.685" fill="#0ba2e7" data-name="Rectangle 43" rx="7.613" transform="translate(131.958 116.732)" class="color0ba2e7 svgShape"></rect><rect width="16.072" height="76.13" fill="#ff8066" data-name="Rectangle 43" rx="8.036" transform="translate(155.643 64.287)" class="colorfcbdac svgShape"></rect><rect width="16.072" height="35.527" fill="#0ba2e7" data-name="Rectangle 43" rx="8.036" transform="translate(179.328 104.89)" class="color0ba2e7 svgShape"></rect></g><g data-name="Group 27" transform="translate(3149.164 1156.767)" fill="#000000" class="color000 svgShape"><rect width="130.267" height="126.883" fill="#fee5f8" data-name="Rectangle 29" rx="15" class="colorfff svgShape"></rect><text data-name="23.8k" font-family="SegoeUI-Semibold, Segoe UI" font-size="25" font-weight="600" letter-spacing=".03em" opacity=".8" transform="translate(32.989 71.832)" svgjs:data="{&quot;leading&quot;:&quot;1.3&quot;}"><tspan x="0" y="0">23.8k</tspan></text><text font-family="SegoeUI-Bold, Segoe UI" font-size="9" font-weight="700" opacity=".3" transform="translate(51.599 92.897)" svgjs:data="{&quot;leading&quot;:&quot;1.3&quot;}"><tspan x="0" y="0">Reach</tspan></text><text fill="#5dd95d" data-name="11.5%" font-family="SegoeUI-Semibold, Segoe UI" font-size="9" font-weight="600" transform="translate(53.291 111.506)" svgjs:data="{&quot;leading&quot;:&quot;1.3&quot;}"><tspan x="0" y="0">11.5%</tspan></text><g transform="translate(50.248 15.36)" fill="#000000" class="color000 svgShape"><path fill="none" d="M0,0H30.059V30.059H0Z" data-name="Path 234"></path><path fill="#e8ecf8" d="M14.524,2A12.524,12.524,0,1,0,27.049,14.524,12.529,12.529,0,0,0,14.524,2Zm0,3.757a3.757,3.757,0,1,1-3.757,3.757A3.752,3.752,0,0,1,14.524,5.757Zm0,17.785A9.018,9.018,0,0,1,7.01,19.509c.038-2.492,5.01-3.858,7.515-3.858S22,17.017,22.039,19.509A9.018,9.018,0,0,1,14.524,23.542Z" data-name="Path 235" transform="translate(.505 .505)" class="colore8ecf8 svgShape"></path></g></g><g data-name="Group 28" transform="rotate(12.04 -3807.943 16581.355)" fill="#000000" class="color000 svgShape"><g filter="url(#c)" transform="rotate(-11.5 -1221.08 1673.85)" fill="#000000" class="color000 svgShape"><rect width="151.101" height="169.657" fill="#fee5f8" data-name="Rectangle 29" rx="15" transform="rotate(11.5 -1253.555 1649.672)" class="colorfff svgShape"></rect></g><text data-name="3425" font-family="SegoeUI-Bold, Segoe UI" font-size="18" font-weight="700" letter-spacing=".03em" transform="translate(53.018 77.32)" svgjs:data="{&quot;leading&quot;:&quot;1.3&quot;}"><tspan x="0" y="0">3425</tspan></text><g data-name="Group 29" transform="translate(22.763 23.752)" fill="#000000" class="color000 svgShape"><path fill="none" stroke="#fcf6e4" stroke-linecap="round" stroke-miterlimit="10" stroke-width="12" d="M0,52.4a52.4,52.4,0,1,1,104.805,0" data-name="Path 236" class="colorStrokefcf6e4 svgStroke"></path><path fill="none" stroke="#e25ae0" stroke-linecap="round" stroke-miterlimit="10" stroke-width="12" d="M0,52.4A52.4,52.4,0,0,1,87.718,13.688" data-name="Path 237" class="colorStrokefbd766 svgStroke"></path></g><path fill="#e8ecf8" stroke="#e8ecf8" stroke-linecap="round" stroke-width="3" d="M0,0H25.412" data-name="Path 238" transform="translate(63.18 93.806)" class="colore8ecf8 svgShape colorStrokee8ecf8 svgStroke"></path><g data-name="Group 30" transform="translate(22.091 113.319)" fill="#000000" class="color000 svgShape"><text data-name="11.5%" font-family="SegoeUI-Semibold, Segoe UI" font-size="10" font-weight="600" opacity=".5" transform="translate(0 27.575)" svgjs:data="{&quot;leading&quot;:&quot;1.3&quot;}"><tspan x="0" y="0">11.5%</tspan></text><text data-name="11.5%" font-family="SegoeUI-Semibold, Segoe UI" font-size="10" font-weight="600" opacity=".5" transform="translate(77.76 27.575)" svgjs:data="{&quot;leading&quot;:&quot;1.3&quot;}"><tspan x="0" y="0">11.5%</tspan></text><g data-name="user (2)" transform="translate(9.72)" fill="#000000" class="color000 svgShape"><path fill="#dbe2ff" d="M2.991,5.982a2.894,2.894,0,0,0,2.115-.876,2.894,2.894,0,0,0,.876-2.115A2.9,2.9,0,0,0,5.106.876,2.9,2.9,0,0,0,2.991,0,2.894,2.894,0,0,0,.876.876,2.894,2.894,0,0,0,0,2.991,2.894,2.894,0,0,0,.876,5.106,2.9,2.9,0,0,0,2.991,5.982Zm0,0" data-name="Path 239" transform="translate(2.111)" class="colordbe2ff svgShape"></path><path fill="#dbe2ff" d="M10.336,3.551a7.388,7.388,0,0,0-.1-.785,6.183,6.183,0,0,0-.193-.789,3.9,3.9,0,0,0-.324-.736A2.776,2.776,0,0,0,9.229.6a2.156,2.156,0,0,0-.7-.441A2.427,2.427,0,0,0,7.629,0a.91.91,0,0,0-.486.206c-.146.1-.316.2-.506.327a2.9,2.9,0,0,1-.655.289,2.6,2.6,0,0,1-.8.13,2.6,2.6,0,0,1-.8-.13A2.894,2.894,0,0,1,3.724.533C3.535.412,3.365.3,3.217.206A.909.909,0,0,0,2.731,0a2.424,2.424,0,0,0-.9.163,2.154,2.154,0,0,0-.7.441,2.777,2.777,0,0,0-.489.637,3.9,3.9,0,0,0-.324.736,6.2,6.2,0,0,0-.193.789,7.362,7.362,0,0,0-.1.785C.008,3.788,0,4.035,0,4.284a2.062,2.062,0,0,0,.612,1.56,2.2,2.2,0,0,0,1.578.576H8.17a2.2,2.2,0,0,0,1.578-.576,2.061,2.061,0,0,0,.613-1.56c0-.25-.009-.5-.025-.734Zm0,0" data-name="Path 240" transform="translate(0 5.999)" class="colordbe2ff svgShape"></path></g><g data-name="user (2)" transform="translate(87.48)" fill="#000000" class="color000 svgShape"><path fill="#dbe2ff" d="M2.991,5.982a2.894,2.894,0,0,0,2.115-.876,2.894,2.894,0,0,0,.876-2.115A2.9,2.9,0,0,0,5.106.876,2.9,2.9,0,0,0,2.991,0,2.894,2.894,0,0,0,.876.876,2.894,2.894,0,0,0,0,2.991,2.894,2.894,0,0,0,.876,5.106,2.9,2.9,0,0,0,2.991,5.982Zm0,0" data-name="Path 239" transform="translate(2.111)" class="colordbe2ff svgShape"></path><path fill="#dbe2ff" d="M10.336,3.551a7.388,7.388,0,0,0-.1-.785,6.183,6.183,0,0,0-.193-.789,3.9,3.9,0,0,0-.324-.736A2.776,2.776,0,0,0,9.229.6a2.156,2.156,0,0,0-.7-.441A2.427,2.427,0,0,0,7.629,0a.91.91,0,0,0-.486.206c-.146.1-.316.2-.506.327a2.9,2.9,0,0,1-.655.289,2.6,2.6,0,0,1-.8.13,2.6,2.6,0,0,1-.8-.13A2.894,2.894,0,0,1,3.724.533C3.535.412,3.365.3,3.217.206A.909.909,0,0,0,2.731,0a2.424,2.424,0,0,0-.9.163,2.154,2.154,0,0,0-.7.441,2.777,2.777,0,0,0-.489.637,3.9,3.9,0,0,0-.324.736,6.2,6.2,0,0,0-.193.789,7.362,7.362,0,0,0-.1.785C.008,3.788,0,4.035,0,4.284a2.062,2.062,0,0,0,.612,1.56,2.2,2.2,0,0,0,1.578.576H8.17a2.2,2.2,0,0,0,1.578-.576,2.061,2.061,0,0,0,.613-1.56c0-.25-.009-.5-.025-.734Zm0,0" data-name="Path 240" transform="translate(0 5.999)" class="colordbe2ff svgShape"></path></g></g></g><g data-name="Group 18" transform="rotate(-17 4762.303 -10108.53)" fill="#000000" class="color000 svgShape"><g filter="url(#d)" transform="rotate(16.8 364.83 -358.005)" fill="#000000" class="color000 svgShape"><rect width="146.706" height="60.626" fill="#fee5f8" data-name="Rectangle 33" rx="15" transform="rotate(-17 361.178 -355.603)" class="colorfff svgShape"></rect></g><g data-name="Group 17" transform="translate(85.983 8.775)" fill="#000000" class="color000 svgShape"><rect width="19.943" height="19.943" fill="#52cc99" data-name="Rectangle 37" rx="6" transform="translate(0 23.134)" class="color376cf0 svgShape"></rect><rect width="19.943" height="19.943" fill="#ff8066" data-name="Rectangle 40" rx="6" transform="translate(23.932 23.134)" class="colorffbfbf svgShape"></rect><rect width="19.943" height="19.943" fill="#ff6699" data-name="Rectangle 38" rx="6" class="colorfed966 svgShape"></rect><rect width="19.943" height="19.943" fill="#333588" data-name="Rectangle 39" rx="6" transform="translate(23.932)" class="color333588 svgShape"></rect></g><g data-name="Group 19" transform="translate(10.98 9.174)" fill="#000000" class="color000 svgShape"><rect width="59.792" height="43.077" fill="none" stroke="#000000" stroke-dasharray="6 4" stroke-width="1.5" data-name="Rectangle 34" opacity=".1" rx="10" class="colorStroke000 svgStroke"></rect><text font-family="SegoeUI-Semibold, Segoe UI" font-size="9" font-weight="600" opacity=".2" transform="translate(12.365 25.555)" svgjs:data="{&quot;leading&quot;:&quot;1.3&quot;}"><tspan x="0" y="0">Content</tspan></text></g></g><g data-name="Group 31" transform="translate(3563.389 1156.767)" fill="#000000" class="color000 svgShape"><g filter="url(#e)" transform="translate(-519.6 -296.16)" fill="#000000" class="color000 svgShape"><rect width="73.592" height="72.746" fill="#ecf5fc" data-name="Rectangle 31" rx="15" transform="translate(519.6 296.16)" class="colorecf5fc svgShape"></rect></g><ellipse cx="21.57" cy="21.147" fill="#9fd5f1" data-name="Ellipse 3" rx="21.57" ry="21.147" transform="translate(15.226 15.226)" class="color9fd5f1 svgShape"></ellipse><path fill="#fee5f8" fill-rule="evenodd" d="M294.227,63.11A11.848,11.848,0,0,1,276,73.63a8.376,8.376,0,0,0,6.167-1.725,4.169,4.169,0,0,1-3.891-2.893,4.177,4.177,0,0,0,1.881-.071,4.171,4.171,0,0,1-3.341-4.138,4.144,4.144,0,0,0,1.888.52,4.17,4.17,0,0,1-1.289-5.561A11.826,11.826,0,0,0,286,64.115a4.169,4.169,0,0,1,7.1-3.8,8.33,8.33,0,0,0,2.645-1.011,4.174,4.174,0,0,1-1.831,2.3,8.319,8.319,0,0,0,2.393-.656,8.462,8.462,0,0,1-2.078,2.156" transform="translate(-249.473 -30.619)" class="colorfff svgShape"></path></g><g data-name="Group 32" transform="translate(3086.568 1039.188)" fill="#000000" class="color000 svgShape"><g filter="url(#f)" transform="translate(-42.78 -178.58)" fill="#000000" class="color000 svgShape"><rect width="73.592" height="72.746" fill="#fff3f3" data-name="Rectangle 31" rx="15" transform="translate(42.78 178.58)" class="colorfff3f3 svgShape"></rect></g><circle cx="21.57" cy="21.57" r="21.57" fill="#ff8066" data-name="Ellipse 3" transform="translate(15.226 14.38)" class="colorffbfbf svgShape"></circle><g data-name="Group 33" transform="translate(26.69 28.31)" fill="#000000" class="color000 svgShape"><ellipse cx="5.075" cy="5.498" fill="#fee5f8" data-name="Ellipse 4" rx="5.075" ry="5.498" transform="translate(5.454 2.142)" class="colorfff svgShape"></ellipse><g data-name="Page-1" fill="#000000" class="color000 svgShape"><path fill="#ff4143" fill-rule="evenodd" d="M172.493,520.377V514.32l5.784,3.039Zm12.7-7.107a4.684,4.684,0,0,0-.851-2.14,3.048,3.048,0,0,0-2.145-.913c-3-.218-7.489-.218-7.489-.218H174.7s-4.493,0-7.489.218a3.048,3.048,0,0,0-2.145.913,4.682,4.682,0,0,0-.85,2.14A32.845,32.845,0,0,0,164,516.76V518.4a32.816,32.816,0,0,0,.214,3.489,4.682,4.682,0,0,0,.85,2.14,3.613,3.613,0,0,0,2.36.922c1.712.165,7.278.217,7.278.217s4.5-.007,7.493-.225a3.05,3.05,0,0,0,2.145-.913,4.685,4.685,0,0,0,.851-2.14,32.816,32.816,0,0,0,.214-3.489V516.76a32.845,32.845,0,0,0-.214-3.489Z" data-name="Social-Icons---Isolated" transform="translate(-164 -510)" class="colorff4143 svgShape"></path></g></g></g></g></svg></g></svg>