<svg xmlns="http://www.w3.org/2000/svg" xmlns:xlink="http://www.w3.org/1999/xlink" width="129.327" height="133.491" viewBox="0 0 129.327 133.491">
  <defs>
    <linearGradient id="linear-gradient22" x1="0.894" y1="0.822" x2="0.221" y2="0.181" gradientUnits="objectBoundingBox">
      <stop offset="0" stop-color="#2ee5a8"/>
      <stop offset="1" stop-color="#4cf"/>
    </linearGradient>
    <linearGradient id="linear-gradient22-2" x1="0.879" y1="0.897" x2="-0.077" y2="0.418" xlink:href="#linear-gradient22"/>
  </defs>
  <g id="Group_54" data-name="Group 54" transform="translate(-1306 -1413.757)">
    <g id="Group_50" data-name="Group 50" transform="translate(775.092 -7.757)">
      <circle id="Ellipse_6" data-name="Ellipse 6" cx="37.222" cy="37.222" r="37.222" transform="translate(585.791 1480.561)" fill="url(#linear-gradient22)"/>
      <path id="Union" d="M17.1,5.181a2.59,2.59,0,1,0-2.59-2.59A2.59,2.59,0,0,0,17.1,5.181Zm14.506,0a2.59,2.59,0,1,0-2.59-2.59A2.59,2.59,0,0,0,31.6,5.181Zm0,14.506a2.59,2.59,0,1,0-2.59-2.59A2.59,2.59,0,0,0,31.6,19.687ZM34.193,31.6a2.59,2.59,0,1,1-2.59-2.59A2.59,2.59,0,0,1,34.193,31.6ZM31.6,48.7a2.59,2.59,0,1,0-2.59-2.59A2.59,2.59,0,0,0,31.6,48.7Zm2.59,11.916a2.59,2.59,0,1,1-2.59-2.59A2.59,2.59,0,0,1,34.193,60.615ZM19.687,17.1a2.59,2.59,0,1,1-2.59-2.59A2.59,2.59,0,0,1,19.687,17.1Zm-2.59,17.1a2.59,2.59,0,1,0-2.59-2.59A2.59,2.59,0,0,0,17.1,34.193Zm2.59,11.916a2.59,2.59,0,1,1-2.59-2.59A2.59,2.59,0,0,1,19.687,46.109Zm-2.59,17.1a2.59,2.59,0,1,0-2.59-2.59A2.59,2.59,0,0,0,17.1,63.205ZM5.181,8.807a2.59,2.59,0,1,1-2.59-2.59A2.59,2.59,0,0,1,5.181,8.807ZM2.59,25.9A2.59,2.59,0,1,0,0,23.313,2.59,2.59,0,0,0,2.59,25.9ZM5.181,37.82a2.59,2.59,0,1,1-2.59-2.59A2.59,2.59,0,0,1,5.181,37.82Zm-2.59,17.1A2.59,2.59,0,1,0,0,52.326,2.59,2.59,0,0,0,2.59,54.916ZM48.7,8.807a2.59,2.59,0,1,1-2.59-2.59A2.59,2.59,0,0,1,48.7,8.807Zm-2.59,17.1a2.59,2.59,0,1,0-2.59-2.59A2.59,2.59,0,0,0,46.109,25.9ZM48.7,37.82a2.59,2.59,0,1,1-2.59-2.59A2.59,2.59,0,0,1,48.7,37.82Zm-2.59,17.1a2.59,2.59,0,1,0-2.59-2.59A2.59,2.59,0,0,0,46.109,54.916Z" transform="translate(530.908 1421.514)" fill-rule="evenodd" fill="url(#linear-gradient22-2)"/>
    </g>
    <g id="money-bag_1_" data-name="money-bag (1)" transform="translate(1314.133 1441.757)">
      <path id="Union_5" data-name="Union 5" d="M44.938,78H22.865A22.787,22.787,0,0,1,.006,55.8Q0,55.485,0,55.173c0-11.967,14.894-28.562,25.474-38.84-2.1-2.268-4.307-4.79-6.417-7.439A5.489,5.489,0,0,1,23.368,0h24.9a5.488,5.488,0,0,1,4.311,8.893c-2.11,2.65-4.32,5.172-6.418,7.439C56.744,26.61,71.639,43.2,71.639,55.173q0,.312-.006.624A22.787,22.787,0,0,1,48.774,78Z" transform="translate(20.867 0)" fill="#fff" stroke="#000d27" stroke-width="6"/>
    </g>
    <g id="dollar-symbol_1_" data-name="dollar-symbol (1)" transform="translate(1242.389 1480.502)">
      <path id="Path_266" data-name="Path 266" d="M134.377,13.953a4.623,4.623,0,0,0-.4-.978,3.31,3.31,0,0,0-.678-.812,8.094,8.094,0,0,0-.793-.639,7.731,7.731,0,0,0-.966-.544q-.613-.3-.972-.448t-1.036-.4q-.6-.23-.9-.352t-.774-.345a4.51,4.51,0,0,1-.716-.4,5.628,5.628,0,0,1-.505-.422,1.44,1.44,0,0,1-.377-.531,1.72,1.72,0,0,1,.659-2.034A3.325,3.325,0,0,1,128.9,5.5,4.262,4.262,0,0,1,130,5.647a5.72,5.72,0,0,1,.953.332,6.62,6.62,0,0,1,.748.409q.352.224.5.339c.1.077.16.128.186.154a.408.408,0,0,0,.345.09.349.349,0,0,0,.294-.2L134.058,4.9a.37.37,0,0,0-.064-.486c-.051-.051-.115-.111-.192-.179s-.243-.192-.5-.371a6.174,6.174,0,0,0-.812-.48,8.213,8.213,0,0,0-1.113-.428,7.1,7.1,0,0,0-1.413-.294V.409A.394.394,0,0,0,129.556,0h-1.727a.393.393,0,0,0-.288.121.393.393,0,0,0-.121.288v2.3a5.852,5.852,0,0,0-3.262,1.714,4.374,4.374,0,0,0-1.253,3.1,4.442,4.442,0,0,0,.109,1,5.107,5.107,0,0,0,.269.851,3.13,3.13,0,0,0,.454.742,7.945,7.945,0,0,0,.556.627,4.517,4.517,0,0,0,.684.543q.422.282.723.454t.8.4q.5.224.787.339t.787.319q.691.269,1.023.416t.844.409a3.5,3.5,0,0,1,.748.48,2.4,2.4,0,0,1,.428.537,1.3,1.3,0,0,1,.192.678,1.79,1.79,0,0,1-.787,1.56,3.1,3.1,0,0,1-1.823.55,4.468,4.468,0,0,1-.946-.1,6.682,6.682,0,0,1-3.108-1.6l-.026-.026a.317.317,0,0,0-.307-.115.4.4,0,0,0-.294.154L122.7,17.458a.388.388,0,0,0,.026.524q.064.077.224.23a7.4,7.4,0,0,0,.595.48,7.849,7.849,0,0,0,2.245,1.183,8.075,8.075,0,0,0,1.631.4V22.51a.415.415,0,0,0,.409.409h1.727a.393.393,0,0,0,.409-.409V20.272a5.492,5.492,0,0,0,3.306-1.746,4.866,4.866,0,0,0,1.273-3.37A4.2,4.2,0,0,0,134.377,13.953Z" transform="translate(0 0)" fill="#000d27" opacity="0.2"/>
    </g>
  </g>
</svg>
