<svg xmlns="http://www.w3.org/2000/svg" xmlns:xlink="http://www.w3.org/1999/xlink" width="129.327" height="133.491" viewBox="0 0 129.327 133.491">
  <defs>
    <linearGradient id="linear-gradient33" x1="0.894" y1="0.822" x2="0.221" y2="0.181" gradientUnits="objectBoundingBox">
      <stop offset="0" stop-color="#e5d92e"/>
      <stop offset="1" stop-color="#ffaff2"/>
    </linearGradient>
    <linearGradient id="linear-gradient33-2" x1="0.879" y1="0.897" x2="-0.077" y2="0.418" xlink:href="#linear-gradient33"/>
  </defs>
  <g id="Group_66" data-name="Group 66" transform="translate(-1312 -1410.615)">
    <g id="Group_50" data-name="Group 50" transform="translate(781.092 -10.9)">
      <circle id="Ellipse_6" data-name="Ellipse 6" cx="37.222" cy="37.222" r="37.222" transform="translate(585.791 1480.561)" fill="url(#linear-gradient33)"/>
      <path id="Union" d="M17.1,5.181a2.59,2.59,0,1,0-2.59-2.59A2.59,2.59,0,0,0,17.1,5.181Zm14.506,0a2.59,2.59,0,1,0-2.59-2.59A2.59,2.59,0,0,0,31.6,5.181Zm0,14.506a2.59,2.59,0,1,0-2.59-2.59A2.59,2.59,0,0,0,31.6,19.687ZM34.193,31.6a2.59,2.59,0,1,1-2.59-2.59A2.59,2.59,0,0,1,34.193,31.6ZM31.6,48.7a2.59,2.59,0,1,0-2.59-2.59A2.59,2.59,0,0,0,31.6,48.7Zm2.59,11.916a2.59,2.59,0,1,1-2.59-2.59A2.59,2.59,0,0,1,34.193,60.615ZM19.687,17.1a2.59,2.59,0,1,1-2.59-2.59A2.59,2.59,0,0,1,19.687,17.1Zm-2.59,17.1a2.59,2.59,0,1,0-2.59-2.59A2.59,2.59,0,0,0,17.1,34.193Zm2.59,11.916a2.59,2.59,0,1,1-2.59-2.59A2.59,2.59,0,0,1,19.687,46.109Zm-2.59,17.1a2.59,2.59,0,1,0-2.59-2.59A2.59,2.59,0,0,0,17.1,63.205ZM5.181,8.807a2.59,2.59,0,1,1-2.59-2.59A2.59,2.59,0,0,1,5.181,8.807ZM2.59,25.9A2.59,2.59,0,1,0,0,23.313,2.59,2.59,0,0,0,2.59,25.9ZM5.181,37.82a2.59,2.59,0,1,1-2.59-2.59A2.59,2.59,0,0,1,5.181,37.82Zm-2.59,17.1A2.59,2.59,0,1,0,0,52.326,2.59,2.59,0,0,0,2.59,54.916ZM48.7,8.807a2.59,2.59,0,1,1-2.59-2.59A2.59,2.59,0,0,1,48.7,8.807Zm-2.59,17.1a2.59,2.59,0,1,0-2.59-2.59A2.59,2.59,0,0,0,46.109,25.9ZM48.7,37.82a2.59,2.59,0,1,1-2.59-2.59A2.59,2.59,0,0,1,48.7,37.82Zm-2.59,17.1a2.59,2.59,0,1,0-2.59-2.59A2.59,2.59,0,0,0,46.109,54.916Z" transform="translate(530.908 1421.514)" fill-rule="evenodd" fill="url(#linear-gradient33-2)"/>
    </g>
    <g id="Group_65" data-name="Group 65" transform="translate(-10.832 -21.5)">
      <rect id="Rectangle_55" data-name="Rectangle 55" width="102.864" height="77.229" rx="16" transform="translate(1335.832 1464.5)" fill="#fff" stroke="#000d27" stroke-width="6"/>
      <path id="Path_269" data-name="Path 269" d="M1335.832,1482.631H1438.7" transform="translate(0 4)" fill="#fff" stroke="#000d27" stroke-width="2"/>
      <circle id="Ellipse_8" data-name="Ellipse 8" cx="2" cy="2" r="2" transform="translate(1349 1476)" fill="#000d27"/>
      <circle id="Ellipse_9" data-name="Ellipse 9" cx="2" cy="2" r="2" transform="translate(1356 1476)" fill="#000d27"/>
      <circle id="Ellipse_10" data-name="Ellipse 10" cx="2" cy="2" r="2" transform="translate(1363 1476)" fill="#000d27"/>
      <path id="Path_270" data-name="Path 270" d="M-17.52-5.76l8.44-5.1v2.84l-4.54,2.84,4.54,2.72v3l-8.44-5ZM6.46-14.2-3.46,0H-6.42l9.9-14.2ZM17.52-4.46,9.08.54v-3l4.54-2.72L9.08-8.02v-2.84l8.44,5.1Z" transform="translate(1387.352 1519.5)" fill="#000d27" opacity="0.2"/>
    </g>
  </g>
</svg>
