<svg xmlns="http://www.w3.org/2000/svg" xmlns:xlink="http://www.w3.org/1999/xlink" width="129.327" height="133.491" viewBox="0 0 129.327 133.491">
  <defs>
    <linearGradient id="linear-gradient44" x1="0.894" y1="0.822" x2="0.221" y2="0.181" gradientUnits="objectBoundingBox">
      <stop offset="0" stop-color="#4157fe"/>
      <stop offset="1" stop-color="#ffd344"/>
    </linearGradient>
    <linearGradient id="linear-gradient44-2" x1="0.879" y1="0.897" x2="-0.077" y2="0.418" xlink:href="#linear-gradient44"/>
  </defs>
  <g id="Group_69" data-name="Group 69" transform="translate(0)">
    <g id="Group_55" data-name="Group 55" transform="translate(0)">
      <circle id="Ellipse_6" data-name="Ellipse 6" cx="37.222" cy="37.222" r="37.222" transform="translate(54.883 59.047)" fill="url(#linear-gradient44)"/>
      <path id="Union" d="M17.1,5.181a2.59,2.59,0,1,0-2.59-2.59A2.59,2.59,0,0,0,17.1,5.181Zm14.506,0a2.59,2.59,0,1,0-2.59-2.59A2.59,2.59,0,0,0,31.6,5.181Zm0,14.506a2.59,2.59,0,1,0-2.59-2.59A2.59,2.59,0,0,0,31.6,19.687ZM34.193,31.6a2.59,2.59,0,1,1-2.59-2.59A2.59,2.59,0,0,1,34.193,31.6ZM31.6,48.7a2.59,2.59,0,1,0-2.59-2.59A2.59,2.59,0,0,0,31.6,48.7Zm2.59,11.916a2.59,2.59,0,1,1-2.59-2.59A2.59,2.59,0,0,1,34.193,60.615ZM19.687,17.1a2.59,2.59,0,1,1-2.59-2.59A2.59,2.59,0,0,1,19.687,17.1Zm-2.59,17.1a2.59,2.59,0,1,0-2.59-2.59A2.59,2.59,0,0,0,17.1,34.193Zm2.59,11.916a2.59,2.59,0,1,1-2.59-2.59A2.59,2.59,0,0,1,19.687,46.109Zm-2.59,17.1a2.59,2.59,0,1,0-2.59-2.59A2.59,2.59,0,0,0,17.1,63.205ZM5.181,8.807a2.59,2.59,0,1,1-2.59-2.59A2.59,2.59,0,0,1,5.181,8.807ZM2.59,25.9A2.59,2.59,0,1,0,0,23.313,2.59,2.59,0,0,0,2.59,25.9ZM5.181,37.82a2.59,2.59,0,1,1-2.59-2.59A2.59,2.59,0,0,1,5.181,37.82Zm-2.59,17.1A2.59,2.59,0,1,0,0,52.326,2.59,2.59,0,0,0,2.59,54.916ZM48.7,8.807a2.59,2.59,0,1,1-2.59-2.59A2.59,2.59,0,0,1,48.7,8.807Zm-2.59,17.1a2.59,2.59,0,1,0-2.59-2.59A2.59,2.59,0,0,0,46.109,25.9ZM48.7,37.82a2.59,2.59,0,1,1-2.59-2.59A2.59,2.59,0,0,1,48.7,37.82Zm-2.59,17.1a2.59,2.59,0,1,0-2.59-2.59A2.59,2.59,0,0,0,46.109,54.916Z" fill-rule="evenodd" fill="url(#linear-gradient44-2)"/>
    </g>
    <path id="Path_265" data-name="Path 265" d="M78,39a7.735,7.735,0,0,0-4.667-6.905c-2.577-.912-5.075-3.146-5.8-4.907s-.538-5.113.638-7.582a7.747,7.747,0,0,0-1.589-8.186A7.745,7.745,0,0,0,58.391,9.83c-2.469,1.175-5.816,1.367-7.572.64s-3.992-3.228-4.907-5.8A7.75,7.75,0,0,0,39,0a7.75,7.75,0,0,0-6.913,4.665c-.917,2.577-3.15,5.078-4.907,5.8S22.073,11,19.6,9.83a7.746,7.746,0,0,0-8.186,1.587A7.745,7.745,0,0,0,9.83,19.6c1.175,2.47,1.362,5.819.632,7.579s-3.22,4-5.8,4.91A7.733,7.733,0,0,0,0,39a7.75,7.75,0,0,0,4.665,6.913c2.577.915,5.07,3.154,5.8,4.91s.54,5.1-.635,7.571a7.746,7.746,0,0,0,1.587,8.186A7.749,7.749,0,0,0,19.6,68.167c2.47-1.175,5.818-1.365,7.574-.637s3.99,3.236,4.907,5.808A7.753,7.753,0,0,0,39,78a7.753,7.753,0,0,0,6.913-4.659c.915-2.572,3.147-5.076,4.9-5.808s5.108-.538,7.576.638a7.452,7.452,0,0,0,9.775-9.774c-1.175-2.47-1.368-5.818-.641-7.574s3.229-3.992,5.806-4.907A7.755,7.755,0,0,0,78,39Z" transform="translate(26.5 27.5)" fill="#fff" stroke="#000d27" stroke-width="6"/>
    <g id="Ellipse_7" data-name="Ellipse 7" transform="translate(54 55)" fill="none" stroke="#000d27" stroke-width="4" opacity="0.2">
      <circle cx="11" cy="11" r="11" stroke="none"/>
      <circle cx="11" cy="11" r="9" fill="none"/>
    </g>
  </g>
</svg>
