<svg xmlns="http://www.w3.org/2000/svg" xmlns:xlink="http://www.w3.org/1999/xlink" width="129.327" height="133.491" viewBox="0 0 129.327 133.491">
  <defs>
    <linearGradient id="linear-gradient" x1="0.174" y1="0.239" x2="0.737" y2="0.802" gradientUnits="objectBoundingBox">
      <stop offset="0" stop-color="#a953ff"/>
      <stop offset="1" stop-color="#04eefe"/>
    </linearGradient>
    <linearGradient id="linear-gradient-2" x1="0.879" y1="0.897" x2="-0.077" y2="0.418" xlink:href="#linear-gradient"/>
  </defs>
  <g id="Group_52" data-name="Group 52" transform="translate(-486 -1414)">
    <g id="Group_49" data-name="Group 49" transform="translate(-44.908 -7.514)">
      <circle id="Ellipse_6" data-name="Ellipse 6" cx="37.222" cy="37.222" r="37.222" transform="translate(585.791 1480.561)" fill="url(#linear-gradient)"/>
      <path id="Union" d="M17.1,5.181a2.59,2.59,0,1,0-2.59-2.59A2.59,2.59,0,0,0,17.1,5.181Zm14.506,0a2.59,2.59,0,1,0-2.59-2.59A2.59,2.59,0,0,0,31.6,5.181Zm0,14.506a2.59,2.59,0,1,0-2.59-2.59A2.59,2.59,0,0,0,31.6,19.687ZM34.193,31.6a2.59,2.59,0,1,1-2.59-2.59A2.59,2.59,0,0,1,34.193,31.6ZM31.6,48.7a2.59,2.59,0,1,0-2.59-2.59A2.59,2.59,0,0,0,31.6,48.7Zm2.59,11.916a2.59,2.59,0,1,1-2.59-2.59A2.59,2.59,0,0,1,34.193,60.615ZM19.687,17.1a2.59,2.59,0,1,1-2.59-2.59A2.59,2.59,0,0,1,19.687,17.1Zm-2.59,17.1a2.59,2.59,0,1,0-2.59-2.59A2.59,2.59,0,0,0,17.1,34.193Zm2.59,11.916a2.59,2.59,0,1,1-2.59-2.59A2.59,2.59,0,0,1,19.687,46.109Zm-2.59,17.1a2.59,2.59,0,1,0-2.59-2.59A2.59,2.59,0,0,0,17.1,63.205ZM5.181,8.807a2.59,2.59,0,1,1-2.59-2.59A2.59,2.59,0,0,1,5.181,8.807ZM2.59,25.9A2.59,2.59,0,1,0,0,23.313,2.59,2.59,0,0,0,2.59,25.9ZM5.181,37.82a2.59,2.59,0,1,1-2.59-2.59A2.59,2.59,0,0,1,5.181,37.82Zm-2.59,17.1A2.59,2.59,0,1,0,0,52.326,2.59,2.59,0,0,0,2.59,54.916ZM48.7,8.807a2.59,2.59,0,1,1-2.59-2.59A2.59,2.59,0,0,1,48.7,8.807Zm-2.59,17.1a2.59,2.59,0,1,0-2.59-2.59A2.59,2.59,0,0,0,46.109,25.9ZM48.7,37.82a2.59,2.59,0,1,1-2.59-2.59A2.59,2.59,0,0,1,48.7,37.82Zm-2.59,17.1a2.59,2.59,0,1,0-2.59-2.59A2.59,2.59,0,0,0,46.109,54.916Z" transform="translate(530.908 1421.514)" fill-rule="evenodd" fill="url(#linear-gradient-2)"/>
    </g>
    <g id="play" transform="translate(499 1519.997) rotate(-90)">
      <g id="Group_47" data-name="Group 47" transform="translate(0 0)">
        <path id="Path_259" data-name="Path 259" d="M72.25,42.284,14.562,2.791A14.082,14.082,0,0,0,6.982,0C2.668,0,0,3.462,0,9.257V94.613c0,5.788,2.665,9.243,6.968,9.243a13.965,13.965,0,0,0,7.546-2.8L72.23,61.567C75.941,59.023,78,55.6,78,51.924S75.966,44.827,72.25,42.284Z" fill="#fff" stroke="#000d27" stroke-width="6"/>
      </g>
    </g>
    <g id="play-2" data-name="play" transform="translate(540.639 1496.726) rotate(-90)" opacity="0.2">
      <g id="Group_47-2" data-name="Group 47" transform="translate(0 0)">
        <path id="Path_259-2" data-name="Path 259" d="M14.316,8.378,2.885.553A2.79,2.79,0,0,0,1.383,0C.529,0,0,.686,0,1.834V18.747c0,1.147.528,1.832,1.381,1.832a2.767,2.767,0,0,0,1.5-.554L14.312,12.2a2.346,2.346,0,0,0,1.143-1.911A2.338,2.338,0,0,0,14.316,8.378Z" transform="translate(0 0)" fill="none" stroke="#000d27" stroke-width="4"/>
      </g>
    </g>
  </g>
</svg>
